<?xml version="1.0" encoding="UTF-8" standalone="no" ?>
<!DOCTYPE svg PUBLIC "-//W3C//DTD SVG 1.1//EN" "http://www.w3.org/Graphics/SVG/1.1/DTD/svg11.dtd">
<svg xmlns="http://www.w3.org/2000/svg" xmlns:xlink="http://www.w3.org/1999/xlink" version="1.1" width="438" height="516" viewBox="0 0 438 516" xml:space="preserve">
<desc>Created with Fabric.js 4.6.0</desc>
<defs>
</defs>
<g transform="matrix(1.95 0 0 0.08 216 24.5)" id="K5iuA02YI7P273gJF06dr"  >
<path style="stroke: rgb(142,51,244); stroke-width: 0; stroke-dasharray: none; stroke-linecap: butt; stroke-dashoffset: 0; stroke-linejoin: miter; stroke-miterlimit: 4; fill: rgb(0,0,0); fill-rule: nonzero; opacity: 1;" vector-effect="non-scaling-stroke"  transform=" translate(0, 0)" d="M-100-100 100-100 100 100-100 100z" stroke-linecap="round" />
</g>
<g transform="matrix(1.95 0 0 0.08 216 488)" id="h6i4FpR9Vis7sMJuXoYLm"  >
<path style="stroke: rgb(142,51,244); stroke-width: 0; stroke-dasharray: none; stroke-linecap: butt; stroke-dashoffset: 0; stroke-linejoin: miter; stroke-miterlimit: 4; fill: rgb(0,0,0); fill-rule: nonzero; opacity: 1;" vector-effect="non-scaling-stroke"  transform=" translate(0, 0)" d="M-100-100 100-100 100 100-100 100z" stroke-linecap="round" />
</g>
<g transform="matrix(0.32 0 0 8.96 24 256)" id="fdFO5JMe8fSF1Qoe-xlaV"  >
<path style="stroke: rgb(132,121,176); stroke-width: 0; stroke-dasharray: none; stroke-linecap: butt; stroke-dashoffset: 0; stroke-linejoin: miter; stroke-miterlimit: 4; fill: rgb(0,0,0); fill-rule: nonzero; opacity: 1;" vector-effect="non-scaling-stroke"  transform=" translate(0, 0)" d="M-24-24 24-24 24 24-24 24z" stroke-linecap="round" />
</g>
<g transform="matrix(0.32 0 0 8.96 408 256)" id="pkjD_1DMk8Tw8HHSLNpeo"  >
<path style="stroke: rgb(132,121,176); stroke-width: 0; stroke-dasharray: none; stroke-linecap: butt; stroke-dashoffset: 0; stroke-linejoin: miter; stroke-miterlimit: 4; fill: rgb(0,0,0); fill-rule: nonzero; opacity: 1;" vector-effect="non-scaling-stroke"  transform=" translate(0, 0)" d="M-24-24 24-24 24 24-24 24z" stroke-linecap="round" />
</g>
<g transform="matrix(2.86 0 0 2.88 128 128.5)" id="3qP9Yy2IQ6KXip9uFKT0N"  >
<path style="stroke: rgb(212,120,190); stroke-width: 0; stroke-dasharray: none; stroke-linecap: butt; stroke-dashoffset: 0; stroke-linejoin: miter; stroke-miterlimit: 4; fill: rgb(49,168,247); fill-rule: nonzero; opacity: 1;" vector-effect="non-scaling-stroke"  transform=" translate(0, 0)" d="M-28-28 28-28 28 28-28 28z" stroke-linecap="round" />
</g>
<g transform="matrix(2.86 0 0 2.88 304 128.5)" id="HuxL-xcMoZqZL-j2kxIew"  >
<path style="stroke: rgb(212,120,190); stroke-width: 0; stroke-dasharray: none; stroke-linecap: butt; stroke-dashoffset: 0; stroke-linejoin: miter; stroke-miterlimit: 4; fill: rgb(49,168,247); fill-rule: nonzero; opacity: 1;" vector-effect="non-scaling-stroke"  transform=" translate(0, 0)" d="M-28-28 28-28 28 28-28 28z" stroke-linecap="round" />
</g>
<g transform="matrix(2.86 0 0 4.3 128 344)" id="UL0ZWC5xQE8l3nmszAfiY"  >
<path style="stroke: rgb(212,120,190); stroke-width: 0; stroke-dasharray: none; stroke-linecap: butt; stroke-dashoffset: 0; stroke-linejoin: miter; stroke-miterlimit: 4; fill: rgb(49,168,247); fill-rule: nonzero; opacity: 1;" vector-effect="non-scaling-stroke"  transform=" translate(0, 0)" d="M-28-28 28-28 28 28-28 28z" stroke-linecap="round" />
</g>
<g transform="matrix(2.86 0 0 4.3 304 344)" id="yIwiHGzCBcxj8wJuKwgiQ"  >
<path style="stroke: rgb(212,120,190); stroke-width: 0; stroke-dasharray: none; stroke-linecap: butt; stroke-dashoffset: 0; stroke-linejoin: miter; stroke-miterlimit: 4; fill: rgb(49,168,247); fill-rule: nonzero; opacity: 1;" vector-effect="non-scaling-stroke"  transform=" translate(0, 0)" d="M-28-28 28-28 28 28-28 28z" stroke-linecap="round" />
</g>
</svg>