<?xml version="1.0" standalone="no"?>
<!DOCTYPE svg PUBLIC "-//W3C//DTD SVG 20010904//EN"
 "http://www.w3.org/TR/2001/REC-SVG-20010904/DTD/svg10.dtd">
<svg version="1.0" xmlns="http://www.w3.org/2000/svg"
 width="96.000000pt" height="96.000000pt" viewBox="0 0 96.000000 96.000000"
 preserveAspectRatio="xMidYMid meet">
<metadata>
Created by potrace 1.14, written by Peter Selinger 2001-2017
</metadata>
<g transform="translate(0.000000,96.000000) scale(0.100000,-0.100000)"
fill="#000000" stroke="none">
<path d="M158 902 c-21 -2 -39 -6 -39 -10 -5 -28 -3 -816 2 -824 8 -12 705
-16 716 -4 9 9 11 813 2 828 -6 9 -586 18 -681 10z m643 -41 c8 -2 7 -755 -2
-761 -6 -4 -617 -5 -640 -1 -4 1 -5 746 -1 761 2 4 622 5 643 1z"/>
<path d="M212 691 l3 -116 123 0 123 0 -3 115 -3 115 -123 1 -123 1 3 -116z"/>
<path d="M504 795 c-3 -6 -3 -58 -2 -115 l3 -104 120 -1 120 0 3 115 3 116
-122 0 c-82 0 -122 -3 -125 -11z"/>
<path d="M215 532 c-3 -3 -5 -89 -5 -192 l0 -186 123 1 122 0 3 191 2 191
-120 0 c-66 0 -122 -2 -125 -5z"/>
<path d="M502 346 l3 -191 123 -1 122 0 0 192 0 192 -125 -1 -125 0 2 -191z"/>
</g>
</svg>
