<?xml version="1.0" standalone="no"?>
<!DOCTYPE svg PUBLIC "-//W3C//DTD SVG 20010904//EN"
 "http://www.w3.org/TR/2001/REC-SVG-20010904/DTD/svg10.dtd">
<svg version="1.0" xmlns="http://www.w3.org/2000/svg"
 width="96.000000pt" height="96.000000pt" viewBox="0 0 96.000000 96.000000"
 preserveAspectRatio="xMidYMid meet">
<metadata>
Created by potrace 1.10, written by Peter Selinger 2001-2011
</metadata>
<g transform="translate(0.000000,96.000000) scale(0.100000,-0.100000)"
fill="#000000" stroke="none">
<path d="M120 480 l0 -420 360 0 360 0 0 420 0 420 -360 0 -360 0 0 -420z
m690 0 l0 -380 -330 0 -330 0 0 380 0 380 330 0 330 0 0 -380z"/>
<path d="M210 695 l0 -115 125 0 125 0 0 115 0 115 -125 0 -125 0 0 -115z"/>
<path d="M500 695 l0 -115 125 0 125 0 0 115 0 115 -125 0 -125 0 0 -115z"/>
<path d="M210 345 l0 -195 125 0 125 0 0 195 0 195 -125 0 -125 0 0 -195z"/>
<path d="M500 345 l0 -195 125 0 125 0 0 195 0 195 -125 0 -125 0 0 -195z"/>
</g>
</svg>
